<svg width="18" height="18" viewBox="0 0 18 18" fill="none" xmlns="http://www.w3.org/2000/svg">
    <path d="M9.48 4.0662L1.7625 11.7837C1.47812 12.0686 1.2984 12.4413 1.2525 12.8412L0.945002 15.5412C0.924958 15.7311 0.945189 15.923 1.00438 16.1046C1.06356 16.2861 1.16037 16.4531 1.28848 16.5946C1.4166 16.7362 1.57313 16.8491 1.74786 16.9261C1.92259 17.003 2.11158 17.0423 2.3025 17.0412H2.46L5.16 16.7337C5.55833 16.6876 5.93019 16.5109 6.2175 16.2312L13.935 8.5062L9.48 4.0662ZM16.545 3.4137L14.5875 1.4562C14.4238 1.2918 14.2291 1.16135 14.0149 1.07233C13.8006 0.983321 13.5708 0.9375 13.3388 0.9375C13.1067 0.9375 12.8769 0.983321 12.6627 1.07233C12.4484 1.16135 12.2538 1.2918 12.09 1.4562L10.275 3.2712L14.73 7.7262L16.545 5.9112C16.7094 5.74745 16.8399 5.55284 16.9289 5.33855C17.0179 5.12426 17.0637 4.8945 17.0637 4.66245C17.0637 4.43041 17.0179 4.20065 16.9289 3.98636C16.8399 3.77206 16.7094 3.57746 16.545 3.4137Z" fill="#5E5E6B"/>
</svg>
