<svg xmlns="http://www.w3.org/2000/svg" width="25" height="24" viewBox="0 0 25 24" fill="none">
    <path d="M23.5325 5.46751L19.0325 0.967513C18.9624 0.898001 18.8793 0.843008 18.7879 0.805684C18.6966 0.768361 18.5987 0.749442 18.5 0.750013H17V6.75001C17 7.14784 16.842 7.52937 16.5607 7.81067C16.2794 8.09198 15.8978 8.25001 15.5 8.25001H9.5C9.10218 8.25001 8.72064 8.09198 8.43934 7.81067C8.15804 7.52937 8 7.14784 8 6.75001V0.750013H3.5C2.90326 0.750013 2.33097 0.987065 1.90901 1.40902C1.48705 1.83098 1.25 2.40328 1.25 3.00001V21C1.25 21.5968 1.48705 22.169 1.90901 22.591C2.33097 23.013 2.90326 23.25 3.5 23.25H5V16.5C5 15.9033 5.23705 15.331 5.65901 14.909C6.08097 14.4871 6.65326 14.25 7.25 14.25H17.75C18.3467 14.25 18.919 14.4871 19.341 14.909C19.7629 15.331 20 15.9033 20 16.5V23.25H21.5C22.0967 23.25 22.669 23.013 23.091 22.591C23.5129 22.169 23.75 21.5968 23.75 21V6.00001C23.7506 5.90131 23.7317 5.80346 23.6943 5.71208C23.657 5.6207 23.602 5.53759 23.5325 5.46751Z" fill="#5E5E6B"/>
    <path d="M9.5 0.75H15.5V6.75H9.5V0.75ZM17.75 15.75H7.25C7.05109 15.75 6.86032 15.829 6.71967 15.9697C6.57902 16.1103 6.5 16.3011 6.5 16.5V23.25H18.5V16.5C18.5 16.3011 18.421 16.1103 18.2803 15.9697C18.1397 15.829 17.9489 15.75 17.75 15.75Z" fill="#5E5E6B"/>
</svg>
