<?xml version="1.0" encoding="utf-8"?>
<!-- Generator: Adobe Illustrator 27.2.0, SVG Export Plug-In . SVG Version: 6.00 Build 0)  -->
<svg version="1.1" id="Слой_1" xmlns="http://www.w3.org/2000/svg" xmlns:xlink="http://www.w3.org/1999/xlink" x="0px" y="0px"
	 viewBox="0 0 73 72" style="enable-background:new 0 0 73 72;" xml:space="preserve">
<style type="text/css">
	.st0{fill:none;}
	.st1{fill:none;stroke:#AAA8B8;stroke-width:2;stroke-linecap:round;stroke-linejoin:round;stroke-miterlimit:10;}
</style>
<path class="st0" d="M52,24.1V28c0,5.6-5.2,12.6-11.6,14.9c-2.8,1-4.9,1-7.7,0c-6.4-2.4-11.6-9.4-11.6-14.9v-4"/>
<path class="st1" d="M52,24.1V28c0,5.6-5.2,12.6-11.6,14.9c-2.8,1-4.9,1-7.7,0c-6.4-2.4-11.6-9.4-11.6-14.9v-4"/>
<path class="st1" d="M26,38.3l-3.8,5.9l9.7,8.9l4.7-9.4l4.7,9.4l9.7-8.9l-3.8-5.9"/>
<path class="st1" d="M22.2,44.2C7,48.7,6,54.5,6,70.6h61.2c0-4.4-0.1-8-0.5-11.1c0,0-1-3.8-2.2-6c-1.1-2.1-3.6-4.9-3.6-4.9
	c-2.3-1.7-5.5-3.1-9.9-4.4"/>
<path class="st1" d="M52.1,18.3c-8.5-8.5-22.4-8.5-30.9,0c-1.6,1.6-1.6,4.2,0,5.7c1.6,1.6,4.2,1.6,5.7,0c5.4-5.4,14.1-5.4,19.5,0
	c1.6,1.6,4.2,1.6,5.7,0C53.7,22.4,53.7,19.9,52.1,18.3z"/>
<path class="st0" d="M52.1,18.3v-1.4c0-8.5-7-15.5-15.5-15.5c-8.5,0-15.5,7-15.5,15.5v1.4"/>
<path class="st1" d="M52.1,18.3v-1.4c0-8.5-7-15.5-15.5-15.5c-8.5,0-15.5,7-15.5,15.5v1.4"/>
<path class="st0" d="M41,70.6l4.1-4.2c0.6-0.6,0.6-1.6,0-2.1l-6.6-6.3c-0.6-0.6-1.6-0.6-2.1,0l-3.2,3.4c-0.6,0.6-0.6,1.6,0,2.1
	l7.4,7.1"/>
<path class="st1" d="M41,70.6l4.1-4.2c0.6-0.6,0.6-1.6,0-2.1l-6.6-6.3c-0.6-0.6-1.6-0.6-2.1,0l-3.2,3.4c-0.6,0.6-0.6,1.6,0,2.1
	l7.4,7.1"/>
<path class="st0" d="M17.8,45.7c1.2,7.7,8.8,12.8,16.3,14.6L17.8,45.7z"/>
<path class="st1" d="M17.8,45.7c1.2,7.7,8.8,12.8,16.3,14.6"/>
<path class="st0" d="M16,64.2h9.3H16z"/>
<path class="st1" d="M16,64.2h9.3"/>
<path class="st0" d="M55.4,45.7c-1.1,7.2-7.8,12.1-14.8,14.2L55.4,45.7z"/>
<path class="st1" d="M55.4,45.7c-1.1,7.2-7.8,12.1-14.8,14.2"/>
</svg>
