<svg xmlns="http://www.w3.org/2000/svg" width="24" height="18" viewBox="0 0 24 18" fill="none">
    <path d="M23.7886 1.76817L16.5099 9L23.7886 16.2318C23.9202 15.9568 24 15.6528 24 15.3281V2.67188C24 2.34717 23.9202 2.04319 23.7886 1.76817ZM21.8906 0.5625H2.10938C1.78467 0.5625 1.48069 0.642328 1.20567 0.773906L10.5086 10.03C11.3312 10.8525 12.6688 10.8525 13.4914 10.03L22.7943 0.773906C22.5193 0.642328 22.2153 0.5625 21.8906 0.5625ZM0.211406 1.76817C0.0798281 2.04319 0 2.34717 0 2.67188V15.3281C0 15.6528 0.0798281 15.9569 0.211406 16.2318L7.49011 9L0.211406 1.76817Z" fill="#AAA8B8"/>
    <path d="M15.5155 9.99609L14.4855 11.0261C13.115 12.3967 10.8848 12.3967 9.51421 11.0261L8.48427 9.99609L1.20557 17.2279C1.48058 17.3595 1.78457 17.4393 2.10927 17.4393H21.8905C22.2152 17.4393 22.5192 17.3595 22.7942 17.2279L15.5155 9.99609Z" fill="#AAA8B8"/>
</svg>
