<svg xmlns="http://www.w3.org/2000/svg" width="25" height="24" viewBox="0 0 25 24" fill="none">
    <g clip-path="url(#clip0_3756_478)">
        <path d="M23.8333 21.8602L18.1213 15.9194C19.5904 14.1763 20.3957 11.9697 20.3946 9.68999C20.3946 4.34701 16.0476 0 10.7046 0C5.36166 0 1.01465 4.34701 1.01465 9.68999C1.01465 15.033 5.36166 19.38 10.7046 19.38C12.7105 19.38 14.6219 18.775 16.2562 17.6265L22.0116 23.6124C22.2522 23.8622 22.5757 24 22.9225 24C23.2507 24 23.562 23.8749 23.7983 23.6474C24.0396 23.4148 24.1787 23.096 24.1853 22.761C24.1918 22.426 24.0653 22.102 23.8333 21.8602ZM10.7046 2.52782C14.6539 2.52782 17.8668 5.74069 17.8668 9.68999C17.8668 13.6393 14.6539 16.8522 10.7046 16.8522C6.75534 16.8522 3.54247 13.6393 3.54247 9.68999C3.54247 5.74069 6.75534 2.52782 10.7046 2.52782Z" fill="#5E5E6B"/>
    </g>
    <defs>
        <clipPath id="clip0_3756_478">
            <rect width="24" height="24" fill="white" transform="translate(0.600098)"/>
        </clipPath>
    </defs>
</svg>
