<svg width="44" height="41" viewBox="0 0 44 41" fill="none" xmlns="http://www.w3.org/2000/svg">
<path d="M42.6249 32.8333V32.8622L42.6282 32.8909C42.7468 33.9138 42.6325 34.9502 42.294 35.9227C41.9554 36.8952 41.4014 37.7785 40.6733 38.5067C39.9451 39.2348 39.0618 39.7889 38.0893 40.1274C37.1168 40.4659 36.0804 40.5802 35.0575 40.4617L35.0288 40.4583H34.9999H8.99992H8.97104L8.94235 40.4617C7.91947 40.5802 6.88302 40.4659 5.91054 40.1274C4.93806 39.7889 4.05471 39.2348 3.32659 38.5067C2.59846 37.7785 2.0444 36.8952 1.70585 35.9227C1.3673 34.9502 1.25304 33.9138 1.37159 32.8909L1.37492 32.8622V32.8333V11.1667V11.1378L1.37159 11.1091C1.25304 10.0862 1.3673 9.04977 1.70585 8.07729C2.0444 7.10481 2.59846 6.22146 3.32659 5.49334C4.05471 4.76521 4.93806 4.21115 5.91054 3.8726C6.88302 3.53405 7.91947 3.41979 8.94235 3.53834L8.97104 3.54167H8.99992H24.1666C24.465 3.54167 24.7511 3.66019 24.9621 3.87117C25.1731 4.08215 25.2916 4.3683 25.2916 4.66667C25.2916 4.96503 25.1731 5.25118 24.9621 5.46216C24.7511 5.67314 24.465 5.79167 24.1666 5.79167H8.99992C7.23425 5.79167 5.85539 6.16646 4.92755 7.0943C3.99971 8.02214 3.62492 9.401 3.62492 11.1667V31.2083V32.4154L4.47847 31.5619L9.98043 26.0599C9.98066 26.0597 9.98089 26.0595 9.98112 26.0592C10.2965 25.7467 10.7225 25.5713 11.1666 25.5713C11.6106 25.5713 12.0367 25.7467 12.352 26.0592C12.3523 26.0595 12.3525 26.0597 12.3527 26.0599L14.388 28.0952L14.388 28.0952L14.3916 28.0987C14.6876 28.3888 15.0855 28.5513 15.4999 28.5513C15.9144 28.5513 16.3123 28.3888 16.6083 28.0987L16.6083 28.0988L16.6118 28.0952L27.3138 17.3933C27.314 17.393 27.3142 17.3928 27.3145 17.3926C27.6298 17.08 28.0559 16.9046 28.4999 16.9046C28.944 16.9046 29.37 17.08 29.6854 17.3926C29.6856 17.3928 29.6858 17.393 29.6861 17.3933L39.5214 27.2286L40.3749 28.0821V26.875V19.8333C40.3749 19.535 40.4934 19.2488 40.7044 19.0378C40.9154 18.8269 41.2016 18.7083 41.4999 18.7083C41.7983 18.7083 42.0844 18.8269 42.2954 19.0378C42.5064 19.2488 42.6249 19.535 42.6249 19.8333V32.8333ZM36.0416 8.45833V7.95833H35.5416H32.8333C32.5349 7.95833 32.2487 7.83981 32.0378 7.62883C31.8268 7.41785 31.7083 7.1317 31.7083 6.83333C31.7083 6.53496 31.8268 6.24882 32.0378 6.03784C32.2487 5.82686 32.5349 5.70833 32.8333 5.70833H35.5416H36.0416V5.20833V2.5C36.0416 2.20163 36.1601 1.91548 36.3711 1.7045C36.5821 1.49353 36.8682 1.375 37.1666 1.375C37.465 1.375 37.7511 1.49353 37.9621 1.7045C38.1731 1.91548 38.2916 2.20163 38.2916 2.5V5.20833V5.70833H38.7916H41.4999C41.7983 5.70833 42.0844 5.82686 42.2954 6.03784C42.5064 6.24882 42.6249 6.53496 42.6249 6.83333C42.6249 7.1317 42.5064 7.41785 42.2954 7.62883C42.0844 7.83981 41.7983 7.95833 41.4999 7.95833H38.7916H38.2916V8.45833V11.1667C38.2916 11.465 38.1731 11.7512 37.9621 11.9622C37.7511 12.1731 37.465 12.2917 37.1666 12.2917C36.8682 12.2917 36.5821 12.1731 36.3711 11.9622C36.1601 11.7512 36.0416 11.465 36.0416 11.1667V8.45833ZM11.7563 13.9437C12.1702 13.528 12.7322 13.2935 13.3188 13.2917H13.3325C13.9191 13.2935 14.4811 13.528 14.8951 13.9437C15.3092 14.3595 15.5413 14.9227 15.5405 15.5096C15.5397 16.0965 15.306 16.659 14.8907 17.0737C14.4754 17.4884 13.9125 17.7213 13.3257 17.7213C12.7388 17.7213 12.1759 17.4884 11.7606 17.0737C11.3454 16.659 11.1117 16.0965 11.1108 15.5096C11.11 14.9227 11.3422 14.3595 11.7563 13.9437Z" fill="#AAA8B8" stroke="black"/>
</svg>
